# xmcd
#
# Track frame offsets:
#	150
#	21569
#	45402
#	60820
#	78052
#	96256
#	120242
#	138905
#	166107
#	184922
#	203194
#	214710
#
# Disc length: 3055 seconds
#
# Revision: 1
# Processed by: cddbd v1.5.2PL0 Copyright (c) Steve Scherf et al.
# Submitted via: audiograbber 1.83.01
#
DISCID=920bed0c
DTITLE=Cam Henderson - Angel Without Wings
DYEAR=2010
DGENRE=Country
TTITLE0=Angel Without Wings
TTITLE1=These Two Strangers
TTITLE2=Three Beautiful People
TTITLE3=Some Say They Will (with Taylor Henderson)
TTITLE4=If Your Love's Like My Love
TTITLE5=Do The Time
TTITLE6=Wounded Heart
TTITLE7=Time To Say Goodbye
TTITLE8=Look Up
TTITLE9=Lonely People
TTITLE10=Bridey's Song
TTITLE11=Angel Without Wings (Remix)
EXTD=
EXTT0=
EXTT1=
EXTT2=
EXTT3=
EXTT4=
EXTT5=
EXTT6=
EXTT7=
EXTT8=
EXTT9=
EXTT10=
EXTT11=
PLAYORDER=
